HIERARCHY
ROOT hips
{
	OFFSET -0.003675 0.299928 -0.021708
	CHANNELS 6 Xposition Yposition Zposition Xrotation Yrotation Zrotation
	JOINT LowerBack
	{
		OFFSET 0.000919 0.177588 0.009275
		CHANNELS 3 Xrotation Yrotation Zrotation
		JOINT spine
		{
			OFFSET 0.000919 0.177588 0.009275
			CHANNELS 3 Xrotation Yrotation Zrotation
			JOINT chest
			{
				OFFSET 0.000456 0.100015 0.004638
				CHANNELS 3 Xrotation Yrotation Zrotation
				JOINT neck
				{
					OFFSET 0.000456 0.100015 0.004638
					CHANNELS 3 Xrotation Yrotation Zrotation
					JOINT head
					{
						OFFSET 0.000924 0.155147 0.009274
						CHANNELS 6 Xposition Yposition Zposition Xrotation Yrotation Zrotation
						End Site
						{
							OFFSET 0.000000 0.153400 0.000000
						}
					}
				}
				JOINT shoulder.L
				{
					OFFSET 0.019937 0.078966 0.057518
					CHANNELS 6 Xposition Yposition Zposition Yrotation Xrotation Zrotation
					JOINT upper_arm.L
					{
						OFFSET 0.177024 -0.020465 -0.095062
						CHANNELS 6 Xposition Yposition Zposition Xrotation Yrotation Zrotation
						JOINT forearm.L
						{
							OFFSET 0.247100 -0.135500 -0.061800
							CHANNELS 3 Xrotation Yrotation Zrotation
							JOINT hand.L
							{
								OFFSET 0.217000 -0.143000 0.039300
								CHANNELS 3 Xrotation Yrotation Zrotation
								JOINT palm.01.L
								{
									OFFSET 0.021770 -0.038291 0.012954
									CHANNELS 6 Xposition Yposition Zposition Yrotation Xrotation Zrotation
									JOINT f_index.01.L
									{
										OFFSET 0.053215 -0.044137 0.008236
										CHANNELS 3 Xrotation Yrotation Zrotation
										JOINT f_index.02.L
										{
											OFFSET 0.036108 -0.024723 -0.010656
											CHANNELS 3 Xrotation Yrotation Zrotation
											JOINT f_index.03.L
											{
												OFFSET 0.021342 -0.014948 -0.010846
												CHANNELS 3 Xrotation Yrotation Zrotation
												End Site
												{
													OFFSET 0.015600 -0.009860 -0.013421
												}
											}
										}
									}
									JOINT thumb.01.L
									{
										OFFSET -0.009090 -0.002348 -0.024223
										CHANNELS 6 Xposition Yposition Zposition Xrotation Yrotation Zrotation
										JOINT thumb.02.L
										{
											OFFSET 0.019713 -0.035076 -0.011120
											CHANNELS 3 Xrotation Yrotation Zrotation
											JOINT thumb.03.L
											{
												OFFSET 0.024877 -0.021748 -0.005176
												CHANNELS 3 Xrotation Yrotation Zrotation
												End Site
												{
													OFFSET 0.016125 -0.013029 -0.001569
												}
											}
										}
									}
								}
								JOINT palm.02.L
								{
									OFFSET 0.032823 -0.025104 0.012281
									CHANNELS 6 Xposition Yposition Zposition Yrotation Xrotation Zrotation
									JOINT f_middle.01.L
									{
										OFFSET 0.055723 -0.038469 0.008037
										CHANNELS 3 Xrotation Yrotation Zrotation
										JOINT f_middle.02.L
										{
											OFFSET 0.038167 -0.027473 -0.015582
											CHANNELS 3 Xrotation Yrotation Zrotation
											JOINT f_middle.03.L
											{
												OFFSET 0.021707 -0.016587 -0.017037
												CHANNELS 3 Xrotation Yrotation Zrotation
												End Site
												{
													OFFSET 0.014112 -0.010584 -0.014294
												}
											}
										}
									}
								}
								JOINT palm.03.L
								{
									OFFSET 0.039230 -0.011402 0.008390
									CHANNELS 6 Xposition Yposition Zposition Yrotation Xrotation Zrotation
									JOINT f_ring.01.L
									{
										OFFSET 0.061796 -0.031470 0.007910
										CHANNELS 3 Xrotation Yrotation Zrotation
										JOINT f_ring.02.L
										{
											OFFSET 0.033092 -0.023401 -0.019127
											CHANNELS 3 Xrotation Yrotation Zrotation
											JOINT f_ring.03.L
											{
												OFFSET 0.021392 -0.015362 -0.017824
												CHANNELS 3 Xrotation Yrotation Zrotation
												End Site
												{
													OFFSET 0.008670 -0.007297 -0.014686
												}
											}
										}
									}
								}
								JOINT palm.04.L
								{
									OFFSET 0.043417 0.002450 0.002889
									CHANNELS 6 Xposition Yposition Zposition Yrotation Xrotation Zrotation
									JOINT f_pinky.01.L
									{
										OFFSET 0.069986 -0.026156 0.003627
										CHANNELS 3 Xrotation Yrotation Zrotation
										JOINT f_pinky.02.L
										{
											OFFSET 0.018520 -0.012813 -0.016429
											CHANNELS 3 Xrotation Yrotation Zrotation
											JOINT f_pinky.03.L
											{
												OFFSET 0.013822 -0.009796 -0.014947
												CHANNELS 3 Xrotation Yrotation Zrotation
												End Site
												{
													OFFSET 0.007238 -0.006103 -0.011657
												}
											}
										}
									}
								}
							}
						}
					}
				}
				JOINT shoulder.R
				{
					OFFSET -0.016662 0.078957 0.057696
					CHANNELS 6 Xposition Yposition Zposition Yrotation Xrotation Zrotation
					JOINT upper_arm.R
					{
						OFFSET -0.176972 -0.020537 -0.095144
						CHANNELS 6 Xposition Yposition Zposition Xrotation Yrotation Zrotation
						JOINT forearm.R
						{
							OFFSET -0.247100 -0.135500 -0.061800
							CHANNELS 3 Xrotation Yrotation Zrotation
							JOINT hand.R
							{
								OFFSET -0.217000 -0.143000 0.039300
								CHANNELS 3 Xrotation Yrotation Zrotation
								JOINT palm.01.R
								{
									OFFSET -0.021773 -0.038278 0.012988
									CHANNELS 6 Xposition Yposition Zposition Yrotation Xrotation Zrotation
									JOINT f_index.01.R
									{
										OFFSET -0.053212 -0.044139 0.008249
										CHANNELS 3 Xrotation Yrotation Zrotation
										JOINT f_index.02.R
										{
											OFFSET -0.036049 -0.024835 -0.010634
											CHANNELS 3 Xrotation Yrotation Zrotation
											JOINT f_index.03.R
											{
												OFFSET -0.021371 -0.014881 -0.010866
												CHANNELS 3 Xrotation Yrotation Zrotation
												End Site
												{
													OFFSET -0.015584 -0.009883 -0.013422
												}
											}
										}
									}
									JOINT thumb.01.R
									{
										OFFSET 0.009113 -0.002381 -0.024211
										CHANNELS 6 Xposition Yposition Zposition Xrotation Yrotation Zrotation
										JOINT thumb.02.R
										{
											OFFSET -0.019694 -0.035097 -0.011088
											CHANNELS 3 Xrotation Yrotation Zrotation
											JOINT thumb.03.R
											{
												OFFSET -0.024867 -0.021762 -0.005168
												CHANNELS 3 Xrotation Yrotation Zrotation
												End Site
												{
													OFFSET -0.016120 -0.013036 -0.001565
												}
											}
										}
									}
								}
								JOINT palm.02.R
								{
									OFFSET -0.032828 -0.025095 0.012286
									CHANNELS 6 Xposition Yposition Zposition Yrotation Xrotation Zrotation
									JOINT f_middle.01.R
									{
										OFFSET -0.055721 -0.038472 0.008040
										CHANNELS 3 Xrotation Yrotation Zrotation
										JOINT f_middle.02.R
										{
											OFFSET -0.038101 -0.027593 -0.015557
											CHANNELS 3 Xrotation Yrotation Zrotation
											JOINT f_middle.03.R
											{
												OFFSET -0.021730 -0.016530 -0.017054
												CHANNELS 3 Xrotation Yrotation Zrotation
												End Site
												{
													OFFSET -0.014096 -0.010608 -0.014293
												}
											}
										}
									}
								}
								JOINT palm.03.R
								{
									OFFSET -0.039192 -0.011488 0.008390
									CHANNELS 6 Xposition Yposition Zposition Yrotation Xrotation Zrotation
									JOINT f_ring.01.R
									{
										OFFSET -0.061839 -0.031387 0.007876
										CHANNELS 3 Xrotation Yrotation Zrotation
										JOINT f_ring.02.R
										{
											OFFSET -0.033068 -0.023437 -0.019125
											CHANNELS 3 Xrotation Yrotation Zrotation
											JOINT f_ring.03.R
											{
												OFFSET -0.021371 -0.015393 -0.017822
												CHANNELS 3 Xrotation Yrotation Zrotation
												End Site
												{
													OFFSET -0.008654 -0.007321 -0.014684
												}
											}
										}
									}
								}
								JOINT palm.04.R
								{
									OFFSET -0.043421 0.002443 0.002845
									CHANNELS 6 Xposition Yposition Zposition Yrotation Xrotation Zrotation
									JOINT f_pinky.01.R
									{
										OFFSET -0.069983 -0.026169 0.003599
										CHANNELS 3 Xrotation Yrotation Zrotation
										JOINT f_pinky.02.R
										{
											OFFSET -0.018501 -0.012842 -0.016428
											CHANNELS 3 Xrotation Yrotation Zrotation
											JOINT f_pinky.03.R
											{
												OFFSET -0.013806 -0.009821 -0.014946
												CHANNELS 3 Xrotation Yrotation Zrotation
												End Site
												{
													OFFSET -0.007226 -0.006121 -0.011655
												}
											}
										}
									}
								}
							}
						}
					}
				}
			}
		}
	}
	JOINT pelvis.L
	{
		OFFSET 0.000000 0.000000 0.000000
		CHANNELS 6 Xposition Yposition Zposition Xrotation Yrotation Zrotation
		JOINT thigh.L
		{
			OFFSET 0.101675 0.001054 -0.000000
			CHANNELS 3 Xrotation Yrotation Zrotation
			JOINT shin.L
			{
				OFFSET 0.000000 -0.534800 0.041000
				CHANNELS 3 Xrotation Yrotation Zrotation
				JOINT foot.L
				{
					OFFSET 0.000000 -0.452000 -0.044800
					CHANNELS 3 Xrotation Yrotation Zrotation
					JOINT toe.L
					{
						OFFSET -0.000000 -0.068500 0.109600
						CHANNELS 3 Xrotation Yrotation Zrotation
						End Site
						{
							OFFSET -0.000000 0.000000 0.067200
						}
					}
				}
				JOINT heel.L
				{
					OFFSET 0.000000 -0.452000 -0.044800
					CHANNELS 3 Xrotation Yrotation Zrotation
					JOINT heel.02.L
					{
						OFFSET -0.038000 -0.085200 0.016200
						CHANNELS 6 Xposition Yposition Zposition Xrotation Yrotation Zrotation
						End Site
						{
							OFFSET 0.080000 -0.000000 0.000000
						}
					}
				}
			}
		}
	}
	JOINT pelvis.R
	{
		OFFSET 0.000000 0.000000 0.000000
		CHANNELS 6 Xposition Yposition Zposition Xrotation Yrotation Zrotation
		JOINT thigh.R
		{
			OFFSET -0.094325 0.001054 0.000000
			CHANNELS 3 Xrotation Yrotation Zrotation
			JOINT shin.R
			{
				OFFSET 0.000000 -0.534800 0.041000
				CHANNELS 3 Xrotation Yrotation Zrotation
				JOINT foot.R
				{
					OFFSET 0.000000 -0.452000 -0.044800
					CHANNELS 3 Xrotation Yrotation Zrotation
					JOINT toe.R
					{
						OFFSET -0.000000 -0.068500 0.109600
						CHANNELS 3 Xrotation Yrotation Zrotation
						End Site
						{
							OFFSET -0.000000 0.000000 0.067200
						}
					}
				}
				JOINT heel.R
				{
					OFFSET 0.000000 -0.452000 -0.044800
					CHANNELS 3 Xrotation Yrotation Zrotation
					JOINT heel.02.R
					{
						OFFSET 0.038000 -0.085200 0.016200
						CHANNELS 6 Xposition Yposition Zposition Xrotation Yrotation Zrotation
						End Site
						{
							OFFSET -0.080000 0.000000 -0.000000
						}
					}
				}
			}
		}
	}
}
MOTION
Frames: 4
Frame Time: 0.041667
-0.016791 0.228323 -0.035323 -8.016112 -8.490813 88.735769 0.000000 0.000000 0.000000 -0.000001 0.000001 0.000000 -0.000000 0.000001 0.000000 0.000001 0.000001 0.000000 0.000924 0.155148 0.009274 -2.089621 0.002558 -14.530695 0.019937 0.078966 0.057518 -20.172559 1.031682 31.089488 0.177024 -0.020465 -0.095062 -2.317810 14.526107 -68.511278 2.095416 0.744556 -8.330733 -0.000002 -0.000000 -0.000004 0.021770 -0.038291 0.012954 0.000001 0.000002 -0.000002 -0.000002 -0.000001 0.000001 -0.000000 -0.000001 0.000007 0.000001 0.000002 0.000002 -0.009090 -0.002348 -0.024224 -0.000001 -0.000003 0.000002 -0.000002 -0.000001 0.000006 -0.000002 -0.000001 0.000001 0.032823 -0.025104 0.012281 -0.000001 0.000003 0.000007 0.000003 0.000000 -0.000005 -0.000001 -0.000000 -0.000000 0.000000 0.000003 0.000003 0.039230 -0.011402 0.008390 -0.000000 0.000001 0.000003 0.000002 0.000003 0.000001 0.000000 0.000004 -0.000002 0.000002 -0.000003 0.000002 0.043417 0.002450 0.002889 -0.000000 0.000003 -0.000003 -0.000001 -0.000004 0.000001 -0.000000 0.000004 -0.000003 -0.000001 -0.000001 0.000000 -0.016662 0.078957 0.057696 -21.235379 5.649123 -27.607976 -0.176972 -0.020537 -0.095144 1.725983 -11.929719 50.577039 -15.026952 14.109300 17.467213 -0.000002 0.000000 -0.000002 -0.021773 -0.038278 0.012988 -0.000001 -0.000001 -0.000003 0.000001 0.000005 -0.000003 -0.000000 -0.000000 -0.000003 -0.000004 0.000000 -0.000001 0.009114 -0.002381 -0.024212 0.000002 -0.000001 -0.000001 -0.000002 -0.000002 0.000002 0.000003 0.000001 0.000001 -0.032828 -0.025095 0.012286 0.000001 -0.000003 -0.000003 -0.000001 0.000003 0.000002 -0.000000 -0.000000 -0.000004 -0.000001 0.000004 0.000002 -0.039192 -0.011488 0.008390 -0.000000 0.000001 -0.000000 -0.000000 0.000002 -0.000007 0.000000 -0.000000 0.000003 -0.000001 -0.000001 -0.000000 -0.043421 0.002443 0.002845 0.000001 0.000000 -0.000003 -0.000002 0.000000 0.000001 0.000001 -0.000001 -0.000002 -0.000007 0.000003 -0.000003 -0.000000 0.000000 0.000000 -1.892340 0.114174 -2.322607 -42.620288 -0.372129 -2.047631 46.931384 -0.706303 7.147038 0.000000 0.000000 0.000000 -0.000002 -0.000000 -0.000000 0.000000 0.000000 0.000000 -0.038000 -0.085200 0.016200 -0.000004 -0.000001 -0.000000 -0.000000 0.000000 0.000000 -1.847931 0.112834 -1.088506 -53.431398 0.583641 3.741238 73.349436 0.405627 -4.094318 -0.000003 -0.000001 -0.000002 0.000002 -0.000001 -0.000000 0.000007 0.000000 0.000000 0.038000 -0.085200 0.016200 -0.000001 -0.000001 -0.000000 
-0.016668 0.228366 -0.034507 -13.876601 -9.261922 88.001496 -0.000000 -0.000001 0.000000 -0.000000 -0.000000 0.000000 -0.000001 0.000000 0.000000 -0.000000 -0.000001 0.000000 0.000924 0.155147 0.009274 -0.837415 -0.003406 -16.366924 0.019937 0.078966 0.057518 -24.489735 1.366392 32.107903 0.177025 -0.020465 -0.095062 -3.881716 14.805379 -66.175203 1.035147 -0.476418 -8.607199 -0.000002 0.000001 -0.000002 0.021770 -0.038291 0.012954 0.000000 0.000002 0.000001 0.000000 0.000000 -0.000000 -0.000002 -0.000001 0.000005 -0.000001 0.000001 0.000000 -0.009090 -0.002348 -0.024223 0.000001 -0.000003 0.000002 0.000002 0.000001 0.000001 -0.000002 -0.000001 -0.000001 0.032823 -0.025104 0.012281 -0.000001 -0.000001 0.000002 -0.000001 -0.000002 -0.000002 -0.000005 -0.000001 0.000003 0.000000 0.000003 0.000001 0.039230 -0.011402 0.008390 0.000001 -0.000000 0.000006 0.000001 -0.000003 0.000003 -0.000001 0.000004 -0.000002 0.000001 -0.000002 0.000003 0.043417 0.002450 0.002889 -0.000001 0.000003 -0.000000 -0.000005 -0.000004 0.000001 -0.000001 0.000003 -0.000001 -0.000003 -0.000003 0.000002 -0.016662 0.078957 0.057696 -24.654384 5.961238 -25.534068 -0.176972 -0.020537 -0.095144 2.176022 -12.002002 49.298516 -10.661526 11.720091 13.439320 0.000001 -0.000000 0.000004 -0.021773 -0.038278 0.012988 -0.000001 0.000003 -0.000002 -0.000003 0.000002 0.000002 -0.000004 -0.000000 -0.000004 0.000001 0.000002 0.000005 0.009113 -0.002381 -0.024211 0.000002 -0.000003 0.000002 -0.000003 -0.000003 0.000000 0.000002 -0.000000 0.000001 -0.032828 -0.025095 0.012286 -0.000001 0.000002 -0.000001 -0.000002 -0.000001 0.000002 -0.000006 -0.000003 -0.000003 -0.000003 0.000002 -0.000003 -0.039192 -0.011488 0.008390 -0.000002 0.000000 -0.000000 0.000003 0.000000 -0.000003 0.000003 0.000002 0.000004 -0.000002 0.000005 -0.000004 -0.043421 0.002443 0.002845 -0.000002 -0.000001 0.000000 -0.000001 0.000004 0.000001 -0.000001 -0.000001 -0.000002 0.000004 -0.000003 -0.000002 -0.000000 0.000000 -0.000000 -1.919385 0.266394 -4.081534 -39.955084 -0.544398 -4.431180 40.907717 -0.972895 9.867519 0.000000 0.000001 -0.000000 -0.000001 -0.000001 -0.000000 0.000000 0.000001 0.000000 -0.038000 -0.085200 0.016200 0.000000 0.000000 -0.000000 -0.000000 -0.000000 0.000000 -1.869214 0.263337 -2.847580 -50.683490 0.238680 -0.631301 72.554381 -0.259941 2.625270 0.000000 0.000000 0.000000 0.000005 0.000000 0.000001 0.000002 0.000000 0.000000 0.038000 -0.085200 0.016200 -0.000001 0.000000 -0.000001 
-0.020583 0.227615 -0.032563 -0.800425 -6.888563 92.037059 -0.000000 0.000000 -0.000000 0.000000 0.000000 -0.000000 0.000000 0.000000 -0.000000 0.000000 0.000000 -0.000000 0.000924 0.155147 0.009274 -17.851891 0.037855 -24.982206 0.019937 0.078966 0.057518 -5.876299 0.240876 27.096281 0.177024 -0.020465 -0.095062 -12.010024 13.310515 -52.970549 -3.266781 -7.713970 12.942251 -0.000004 -0.000003 -0.000002 0.021770 -0.038291 0.012954 0.000001 0.000003 0.000001 -0.000004 0.000001 -0.000002 0.000000 -0.000004 0.000006 0.000001 0.000000 -0.000001 -0.009090 -0.002348 -0.024223 -0.000003 0.000002 -0.000001 0.000002 -0.000001 0.000001 0.000001 -0.000001 0.000006 0.032823 -0.025104 0.012281 0.000000 -0.000001 0.000002 0.000000 0.000001 -0.000000 -0.000003 0.000003 0.000002 -0.000001 0.000002 0.000000 0.039230 -0.011402 0.008390 0.000000 0.000000 0.000001 0.000002 0.000000 -0.000002 0.000001 0.000006 -0.000004 -0.000001 -0.000005 0.000003 0.043417 0.002450 0.002889 -0.000001 0.000001 -0.000002 0.000001 -0.000006 -0.000002 -0.000001 -0.000003 0.000003 -0.000004 0.000005 0.000001 -0.016662 0.078957 0.057696 -4.242157 2.232567 -28.646093 -0.176972 -0.020537 -0.095144 -3.898991 -11.305436 55.501636 -18.324578 14.456107 25.101671 0.000003 0.000000 0.000004 -0.021773 -0.038278 0.012988 0.000001 -0.000001 -0.000002 -0.000001 0.000002 0.000000 -0.000001 -0.000002 -0.000003 0.000002 0.000002 0.000004 0.009114 -0.002381 -0.024212 0.000000 0.000001 -0.000003 0.000002 -0.000004 0.000002 0.000001 0.000000 -0.000001 -0.032828 -0.025095 0.012286 0.000004 -0.000001 -0.000003 -0.000004 0.000003 0.000001 0.000004 -0.000006 -0.000001 -0.000002 -0.000000 -0.000002 -0.039192 -0.011488 0.008390 0.000002 0.000000 0.000001 -0.000002 0.000003 0.000000 -0.000001 0.000001 -0.000000 -0.000003 -0.000003 -0.000003 -0.043421 0.002443 0.002845 -0.000002 -0.000001 0.000002 0.000001 0.000001 0.000001 -0.000006 -0.000004 -0.000006 -0.000001 -0.000003 -0.000000 -0.000000 0.000000 -0.000000 -1.885901 -0.445260 4.221783 -38.857318 -0.165176 0.504993 79.887129 -0.352014 3.556092 0.000002 -0.000000 -0.000000 -0.000001 0.000001 0.000001 0.000002 0.000000 -0.000001 -0.038000 -0.085200 0.016200 -0.000001 -0.000000 -0.000000 -0.000000 0.000000 -0.000000 -1.860003 -0.443077 5.456169 -44.803896 0.552045 3.703773 72.950860 0.425472 -4.295072 0.000000 -0.000001 0.000000 0.000001 -0.000001 0.000000 0.000005 -0.000000 0.000000 0.038000 -0.085200 0.016200 0.000001 0.000000 0.000001 
-0.023381 0.255092 -0.036255 48.499131 33.499260 76.512100 0.000003 0.000000 -0.000002 0.000003 -0.000001 -0.000000 0.000000 0.000001 -0.000002 -0.000001 0.000000 -0.000002 0.000924 0.155148 0.009274 -20.914382 0.084525 -5.826903 0.019937 0.078966 0.057518 -1.391889 -4.113472 20.499378 0.177025 -0.020465 -0.095062 -23.170961 19.537664 -80.096454 -4.867602 -6.343371 -18.149040 -0.000003 -0.000000 -0.000000 0.021770 -0.038291 0.012954 0.000000 0.000000 -0.000002 -0.000003 -0.000003 0.000001 -0.000000 -0.000006 0.000006 -0.000005 0.000001 -0.000000 -0.009090 -0.002348 -0.024223 0.000002 -0.000001 0.000000 -0.000001 -0.000000 -0.000001 -0.000000 -0.000001 -0.000006 0.032823 -0.025104 0.012281 -0.000001 0.000002 0.000007 0.000001 0.000004 -0.000003 -0.000005 -0.000001 0.000005 0.000002 0.000002 -0.000000 0.039230 -0.011402 0.008390 0.000001 0.000001 0.000004 0.000003 -0.000002 0.000001 -0.000002 0.000006 -0.000002 0.000002 0.000001 0.000001 0.043417 0.002450 0.002889 -0.000001 0.000001 -0.000002 -0.000000 -0.000006 -0.000000 0.000003 0.000003 -0.000005 0.000003 -0.000001 -0.000003 -0.016662 0.078956 0.057696 15.579675 -3.814105 -24.793961 -0.176972 -0.020537 -0.095144 -38.202115 -14.880428 57.916685 1.068097 2.327992 18.897463 -0.000004 -0.000002 0.000002 -0.021773 -0.038278 0.012988 -0.000000 -0.000001 0.000000 0.000000 -0.000001 -0.000001 0.000001 0.000001 -0.000006 -0.000002 -0.000001 0.000004 0.009114 -0.002381 -0.024212 0.000003 -0.000003 0.000000 -0.000001 -0.000001 -0.000001 0.000001 -0.000000 -0.000003 -0.032828 -0.025095 0.012286 0.000001 -0.000001 -0.000001 -0.000001 0.000000 0.000001 -0.000002 0.000003 -0.000000 -0.000003 -0.000003 -0.000006 -0.039192 -0.011488 0.008390 0.000001 -0.000003 0.000001 -0.000001 0.000001 -0.000002 0.000000 -0.000003 0.000003 -0.000004 -0.000003 0.000001 -0.043421 0.002443 0.002845 0.000001 -0.000001 0.000002 -0.000003 0.000000 -0.000001 -0.000000 -0.000002 -0.000002 0.000003 0.000000 -0.000001 0.000000 0.000000 -0.000000 -2.372415 0.872382 -10.155892 -94.179873 -0.446868 -1.666877 72.333800 1.460921 -14.908389 -0.000003 -0.000002 -0.000004 0.000001 0.000002 0.000002 0.000000 -0.000001 -0.000002 -0.038000 -0.085200 0.016200 0.000004 0.000002 0.000000 0.000000 0.000000 -0.000000 -2.288273 0.858212 -8.922974 -106.717778 0.270414 -1.078275 73.718300 0.471861 -4.764590 -0.000002 0.000003 -0.000000 0.000004 0.000004 0.000005 0.000007 0.000003 0.000001 0.038000 -0.085200 0.016200 0.000001 -0.000001 0.000005 
